<svg xmlns="http://www.w3.org/2000/svg" viewBox="0 0 1200 800" role="img" aria-label="Scholarship illustration">
  <defs>
    <linearGradient id="sky" x1="0%" y1="0%" x2="100%" y2="100%">
      <stop offset="0%" stop-color="#0b214a"/>
      <stop offset="55%" stop-color="#0d6efd"/>
      <stop offset="100%" stop-color="#00c2ff"/>
    </linearGradient>
    <linearGradient id="card" x1="0%" y1="0%" x2="100%" y2="100%">
      <stop offset="0%" stop-color="#ffffff"/>
      <stop offset="100%" stop-color="#eef4ff"/>
    </linearGradient>
    <linearGradient id="accent" x1="0%" y1="0%" x2="100%" y2="100%">
      <stop offset="0%" stop-color="#7dd3fc"/>
      <stop offset="100%" stop-color="#0d6efd"/>
    </linearGradient>
  </defs>
  <rect width="1200" height="800" rx="48" fill="url(#sky)"/>
  <circle cx="195" cy="160" r="120" fill="#ffffff" fill-opacity="0.10"/>
  <circle cx="1030" cy="90" r="170" fill="#ffffff" fill-opacity="0.08"/>
  <circle cx="980" cy="660" r="210" fill="#ffffff" fill-opacity="0.06"/>
  <path d="M120 620C260 520 365 494 495 502c99 6 162 38 238 89 98 65 182 93 332 72" fill="none" stroke="#ffffff" stroke-opacity="0.12" stroke-width="26" stroke-linecap="round"/>
  <rect x="164" y="210" width="402" height="342" rx="34" fill="url(#card)" opacity="0.98"/>
  <rect x="206" y="254" width="204" height="28" rx="14" fill="url(#accent)"/>
  <rect x="206" y="308" width="278" height="20" rx="10" fill="#c9d7ff"/>
  <rect x="206" y="348" width="242" height="20" rx="10" fill="#d9e4ff"/>
  <rect x="206" y="388" width="218" height="20" rx="10" fill="#d9e4ff"/>
  <rect x="206" y="440" width="170" height="48" rx="24" fill="#e8f1ff"/>
  <circle cx="232" cy="464" r="12" fill="#0d6efd"/>
  <path d="M227 464l8 8 15-18" fill="none" stroke="#ffffff" stroke-width="5" stroke-linecap="round" stroke-linejoin="round"/>
  <rect x="616" y="168" width="352" height="452" rx="38" fill="#ffffff" fill-opacity="0.14" stroke="#ffffff" stroke-opacity="0.20" stroke-width="2"/>
  <rect x="654" y="210" width="210" height="24" rx="12" fill="#ffffff"/>
  <rect x="654" y="258" width="252" height="18" rx="9" fill="#ffffff" fill-opacity="0.68"/>
  <rect x="654" y="294" width="228" height="18" rx="9" fill="#ffffff" fill-opacity="0.58"/>
  <rect x="654" y="330" width="240" height="18" rx="9" fill="#ffffff" fill-opacity="0.50"/>
  <rect x="654" y="386" width="178" height="52" rx="26" fill="#ffffff"/>
  <rect x="654" y="454" width="232" height="52" rx="26" fill="#ffffff" fill-opacity="0.18" stroke="#ffffff" stroke-opacity="0.28" stroke-width="2"/>
  <circle cx="842" cy="432" r="110" fill="#ffffff" fill-opacity="0.12"/>
  <path d="M764 420L842 376l78 44-78 44-78-44Z" fill="#ffffff"/>
  <path d="M810 440v32c0 14 14 26 32 26s32-12 32-26v-32l-32 18-32-18Z" fill="none" stroke="#ffffff" stroke-width="10" stroke-linejoin="round"/>
  <path d="M920 418v38" fill="none" stroke="#ffffff" stroke-width="10" stroke-linecap="round"/>
  <circle cx="920" cy="466" r="10" fill="#ffffff"/>
  <circle cx="410" cy="190" r="36" fill="#ffffff" fill-opacity="0.20"/>
  <circle cx="470" cy="650" r="28" fill="#ffffff" fill-opacity="0.18"/>
  <circle cx="1010" cy="560" r="30" fill="#ffffff" fill-opacity="0.14"/>
  <path d="M240 622h570" stroke="#ffffff" stroke-opacity="0.12" stroke-width="2"/>
</svg>
